<?xml version="1.0" encoding="utf-8"?>
<!-- Generator: Adobe Illustrator 20.0.0, SVG Export Plug-In . SVG Version: 6.00 Build 0)  -->
<svg version="1.1" id="Layer_1" xmlns="http://www.w3.org/2000/svg" xmlns:xlink="http://www.w3.org/1999/xlink" x="0px" y="0px"
     viewBox="0 0 300 300" style="enable-background:new 0 0 300 300;" xml:space="preserve">
<style type="text/css">
    .st0{fill:none;stroke:#00d300;stroke-width:10;stroke-miterlimit:10;}
    .st1{fill:#00d300;}
    .st2{font-family:'HACKED';}
    .st3{font-size:50px;}
</style>
<path class="st0" d="M240.6,223.3H59.4c-6.6,0-12-5.4-12-12V26.8c0-6.6,5.4-12,12-12h181.2c6.6,0,12,5.4,12,12v184.5
    C252.6,217.9,247.2,223.3,240.6,223.3z"/>
<g>
    <g>
        <g>
            <path class="st1" d="M242.8,89.4l-68.9-32.9c-0.8-0.4-1.8,0-2.1,0.8l-15,31.4h8.2l11-23.1l59.7,28.5L217,133.2l-10.5-5v20.7
                l6.5,3.1c0.8,0.4,1.8,0,2.2-0.8l28.5-59.6C243.9,90.8,243.6,89.8,242.8,89.4z"/>
        </g>
        <g>
            <path class="st1" d="M57.2,89l68.9-32.9c0.8-0.4,1.8,0,2.1,0.7l15,31.4h-8.2l-11-23.1L64.4,93.7L83,132.8l10.5-5v20.7l-6.5,3.1
                c-0.8,0.4-1.8,0-2.1-0.8L56.5,91.2C56.1,90.4,56.4,89.4,57.2,89z"/>
        </g>
        <g>
            <path class="st1" d="M199.9,94h-97c-1.1,0-2,0.9-2,2V180c0,1.1,0.9,2,2,2h97c1.1,0,2-0.9,2-2V96.1C202,95,201.1,94,199.9,94z
                 M194.3,158.4h-6.2c-3.6-9.2-8-22-14.7-20.3c-7.8,2-11.8,20.3-11.8,20.3s-4-20.7-15.1-31.7c-11.1-11.1-21.8,31.7-21.8,31.7h-14.6
                v-55h84.1V158.4z"/>
        </g>
        <g>
            <circle class="st1" cx="123.8" cy="115.1" r="6.9"/>
        </g>
        <g>
            <path class="st1" d="M169.8,120c1.5,0,3-0.2,4.3-0.4c1.5,0.6,3.3,1,5.3,1c5,0,9.1-2.5,9.1-5.5c0-3-4.1-5.5-9.1-5.5
                c-1.9,0-3.7,0.4-5.1,0.9c-0.6-0.6-1.4-0.9-2.3-0.9h-1.3c-1.7,0-3,1.3-3.2,2.9c-4.1,0.4-7.1,1.9-7.1,3.7
                C160.3,118.3,164.6,120,169.8,120z"/>
        </g>
    </g>
</g>
<text transform="matrix(1 0 0 1 70.5 268.5)" class="st1 st2 st3">GALLERY</text>
</svg>
