<?xml version="1.0" encoding="utf-8"?>
<!-- Generator: Adobe Illustrator 20.0.0, SVG Export Plug-In . SVG Version: 6.00 Build 0)  -->
<svg version="1.1" id="Layer_1" xmlns="http://www.w3.org/2000/svg" xmlns:xlink="http://www.w3.org/1999/xlink" x="0px" y="0px"
     viewBox="0 0 300 300" style="enable-background:new 0 0 300 300;" xml:space="preserve">
<style type="text/css">
    .st0{fill:none;stroke:#00d300;stroke-width:10;stroke-miterlimit:10;}
    .st1{fill:#00d300;}
    .st2{fill:#00d300;}
</style>
<path class="st0" d="M240.6,223.3H59.4c-6.6,0-12-5.4-12-12V26.8c0-6.6,5.4-12,12-12h181.2c6.6,0,12,5.4,12,12v184.5
    C252.6,217.9,247.2,223.3,240.6,223.3z"/>
<g>
    <path class="st1" d="M68,235h6.6c0.1,0,0.1,0.1,0.1,0.1v17c0,0.1,0,0.1-0.1,0.1h-0.8v17.6c0,0.1,0,0.1-0.1,0.1H68
        c-0.1,0-0.1,0-0.1-0.1v-18h-1.8c-0.1,0-0.1,0-0.1-0.1V251c0-0.1,0.1-0.1,0.1-0.1h1.8v-15.7C67.9,235.1,67.9,235,68,235z
         M67.9,250.8v1h3.4v-1H67.9z"/>
    <path class="st1" d="M77.1,235h7.2c0.1,0,0.9,1.9,2.3,5.6c0.1,0.1,1.6,3.8,4.5,11.1h1.8V235h6.3v19.8h0.7v7.7h-2.5v1.5h2.5v4.6
        h-9.4v-5.9h-1.7c-2.2-5.5-3.8-9.3-4.5-11.4v-5.9h-0.9v18H82v6.2h-5.9v-13.4h1.1v0C77.2,244.8,77.1,237.7,77.1,235z M82.1,263.8h0.4
        c0.2,0.5,0.2,0.8,0.2,0.8h0c0.1-0.6,0.2-0.8,0.3-0.8h0.2v0.1c-0.2,0.8-0.4,1.2-0.5,1.2h-0.3C82.5,265.1,82.4,264.6,82.1,263.8z
         M87.7,251.7v1.3h3.9c-0.3-0.9-0.5-1.3-0.6-1.3H87.7z M89.7,265h0.1c0.1,0,0.1,0.1,0.1,0.1v0.8c0,0.2-0.1,0.4-0.3,0.5h-0.2
        c-0.3,0-0.4-0.1-0.4-0.4v-0.1h0.3c0,0.2,0,0.2,0.1,0.2h0.1v-1C89.6,265,89.6,265,89.7,265z M89.2,263.2h0.9v0.3h-0.6v0.2H90
        c0.1,0,0.1,0.1,0.1,0.1v0.1c0,0.1,0,0.1-0.1,0.1h-0.5v0.2H90c0.1,0,0.1,0.1,0.1,0.1v0c0,0.1,0,0.1-0.1,0.1h-0.8
        c-0.1,0-0.1,0-0.1-0.1v-1.1C89.1,263.2,89.1,263.2,89.2,263.2z M89.2,266.8h0.1c0.1,0,0.1,0.2,0.1,0.5l0.5-0.5h0.3v0l-0.5,0.5
        c0,0,0.2,0.2,0.5,0.7l-0.1,0.1H90c0,0-0.2-0.2-0.5-0.5c-0.1,0-0.1,0.2-0.2,0.5h-0.2c-0.1,0-0.1,0-0.1-0.1v-1.1
        C89.1,266.8,89.1,266.8,89.2,266.8z M90.5,269.3h11.4v0.7H90.5V269.3z M93,251.7v1.3h-1.4c0.8,2.1,1.3,3.4,1.5,4.1h0v-0.2
        c-0.1-2.1-0.2-3.4-0.2-3.9h2.8v-1.3H93z M99.5,247.7h1v0.3h-0.3v1h-0.4v-1h-0.3c-0.1,0-0.1,0-0.1-0.1v0
        C99.4,247.7,99.4,247.7,99.5,247.7z M99.3,249.4h0.2c0.1,0,0.2,0.3,0.3,0.8h0.1l0.2-0.8h0.4l-0.4,1.3h-0.3
        C99.7,250.7,99.6,250.3,99.3,249.4z M99.4,251.2h0.3c0,0.1,0.1,0.3,0.2,0.4c0.1-0.2,0.2-0.4,0.3-0.4h0.2v0.1
        c-0.2,0.4-0.4,0.6-0.4,0.6c0.1,0,0.2,0.2,0.4,0.6h-0.4c0-0.1-0.1-0.2-0.2-0.3c-0.1,0.2-0.3,0.3-0.3,0.3h-0.3
        c0.3-0.4,0.4-0.6,0.4-0.6C99.5,251.5,99.4,251.3,99.4,251.2z M99.5,245.9h0.7c0.3,0,0.5,0.2,0.5,0.5c0,0.1-0.1,0.2-0.2,0.2
        c0.1,0.1,0.2,0.3,0.2,0.5v0.1h-0.3c0-0.3-0.1-0.5-0.2-0.5h-0.3v0.5h-0.4V245.9z M99.5,253h0.6c0.4,0,0.6,0.2,0.6,0.6v0
        c0,0.4-0.2,0.7-0.5,0.7h-0.7V253z M99.8,246.2v0.3h0.3c0.1,0,0.1,0,0.1-0.1v-0.2H99.8z M99.8,253.3v0.8c0.3,0,0.5-0.1,0.5-0.3v-0.1
        c0-0.2-0.1-0.3-0.2-0.3H99.8z"/>
    <path class="st1" d="M100.6,259.6h2.3v1.3h-2.3V259.6z M114.3,235.1c3.9,0,6.5,1.2,7.8,3.7c0.9,1.9,1.4,3.7,1.4,5.5h0
        c-2.7,0.2-4.5,0.3-5.4,0.3c0-1.3-0.4-2.4-1.2-3.2c-0.7-0.4-1.4-0.6-2.1-0.6h-1c-1.7,0-2.7,0.6-3,1.9c-0.1,0.4-0.1,0.7-0.1,0.9v0.5
        c0,1.8,1,3.1,2.9,4c0.2,0.1,1.5,0.8,4,1.8c1.3,0.6,2.6,1.4,3.7,2.3v0H115v0.7h8.1v1h1v10.6h-2v5.4h-15.5v-5.4H103v-3.7h2.1v-1.3
        H103v-0.9h7.1v5.8h7.3v-8.7h-5.4V253h-6.8v-0.7h3.3v0c-2.9-1.9-4.3-4.6-4.3-8.1v-0.5c0-2.9,0.9-5.1,2.7-6.6
        C108.4,235.8,110.9,235.1,114.3,235.1z M115.8,263.1h0.2c0.1,0,0.2,0.3,0.3,0.8h0.1c0.1-0.5,0.2-0.8,0.3-0.8h0.2
        c0.1,0,0.1,0.1,0.1,0.1v1.1c0,0.1,0,0.1-0.1,0.1h-0.2v-0.7h-0.1l-0.2,0.7h-0.2c-0.1,0-0.2-0.2-0.3-0.7h0v0.7h-0.2
        c-0.1,0-0.1,0-0.1-0.1v-1.1C115.7,263.1,115.7,263.1,115.8,263.1z M116,261.4h0.2c0,0,0.2,0.1,0.4,0.4c0.1-0.3,0.2-0.4,0.3-0.4h0.2
        c0.1,0,0.1,0,0.1,0.1c-0.3,0.4-0.5,0.8-0.5,1.2h-0.2c-0.1,0-0.1-0.2-0.2-0.7C116.1,261.7,116,261.5,116,261.4z M116.3,259.6h0.7
        c0.1,0,0.1,0.1,0.1,0.1v0.2h-0.6v0.2h0.6v0.2c0,0.1,0,0.1-0.1,0.1h-0.5v0.2h0.6v0.2c0,0.1,0,0.1-0.1,0.1h-0.7c-0.1,0-0.1,0-0.1-0.1
        v-1.1C116.2,259.7,116.2,259.6,116.3,259.6z M122.5,264.8h0.6c0.3,0,0.5,0.2,0.5,0.5c-0.1,0-0.1,0-0.1,0.1c0.1,0.1,0.2,0.3,0.2,0.4
        c-0.1,0.2-0.3,0.3-0.6,0.3h-0.3c-0.1,0-0.1,0-0.1-0.1V264.8z M122.5,266.6h0.2c0.1,0,0.3,0.3,0.5,0.8h0v-0.8h0.3v1.2
        c0,0.1,0,0.1-0.1,0.1h-0.1c0,0-0.2-0.2-0.6-0.7v0.6c0,0.1,0,0.1-0.1,0.1h0c-0.1,0-0.1,0-0.1-0.1V266.6z M122.8,265.1v0.2h0.2
        c0.1,0,0.1,0,0.1-0.1v-0.1H122.8z M122.8,265.6v0.3h0.3c0.1,0,0.1,0,0.1-0.1v0c0-0.1,0-0.1-0.1-0.1H122.8z M123.1,252.3h2.5v0.7
        h-2.5V252.3z"/>
    <path class="st1" d="M124.9,235h20.5v5.8h-6.8V265h3.1v0.7h-3.1v2.7h-1.8v0.9h1.3v0.7h-6.2c-0.1,0-0.1,0-0.1-0.1v-29h-6.8V235z
         M136.2,265v0.7h2.4V265H136.2z"/>
    <path class="st1" d="M142.3,254.1h4.6v1h-4.6V254.1z M155,235h5.9c0.1,0.3,2,6.7,5.7,19.1h1v11.5h-2.4v0.9h2.4v2.5h-6.5v-7.1h-8v3
        H150v5.1h-5.9v-0.3h0.5v-4.7h2.4v-9.8h2L155,235z M145.8,263.1h0.2c0.1,0,0.3,0.5,0.6,1.6h-0.3c0,0,0-0.2-0.1-0.4h-0.5
        c0,0.2-0.1,0.4-0.2,0.4h-0.3C145.5,263.6,145.7,263.1,145.8,263.1z M145.9,263.6c-0.1,0.3-0.1,0.4-0.1,0.4h0.3L145.9,263.6
        L145.9,263.6z M147.3,253.4h0.5c0,0.1,0.1,0.3,0.2,0.4c0-0.1,0.1-0.3,0.2-0.4h0.4v0c-0.3,0.4-0.4,0.6-0.4,0.7
        c0.1,0.1,0.2,0.4,0.5,0.7v0.1h-0.2c-0.2,0-0.4-0.2-0.5-0.5c-0.2,0.3-0.4,0.5-0.4,0.5h-0.3c-0.1,0-0.1,0-0.1-0.1
        c0,0,0.2-0.2,0.5-0.7V254C147.4,253.6,147.3,253.4,147.3,253.4z M155,262.4v0.3c0,0.1-0.3,0.2-1,0.4v0.1l1,0.3v0.4l-1.5-0.5v-0.4
        L155,262.4z M157.7,244.9L157.7,244.9c-0.5,2.8-1.5,7.2-2.9,13.2h5.5v-4h-0.5c-1.3-5.7-2-8.7-2-9.3H157.7z M158.8,256.4h0.3v0.6
        l0.7-0.6h0.3v0.1l-0.5,0.6c0.4,0.6,0.6,0.9,0.6,0.9h-0.4c0,0-0.2-0.2-0.5-0.6c0,0-0.1,0.1-0.2,0.2v0.5h-0.3V256.4z M161.1,269.4
        h7.9v0.6h-7.9V269.4z M167.8,259h1.1c0.1,0,0.1,0.1,0.1,0.1v0.1c0,0.1,0,0.1-0.1,0.1h-0.3v1.2h-0.4v-1.2h-0.4c-0.1,0-0.1,0-0.1-0.1
        v-0.1C167.7,259,167.7,259,167.8,259z M167.7,261h0.3c0.1,0,0.2,0.3,0.4,1h0c0.2-0.6,0.3-0.9,0.3-1h0.4c-0.3,1.1-0.5,1.6-0.6,1.6
        h-0.3L167.7,261z M167.8,254.8h1.2v0.3l-0.8,1h0.7c0.1,0,0.1,0.1,0.1,0.1v0.1c0,0.1,0,0.1-0.1,0.1h-1.2v-0.3l0.8-1h-0.7V254.8z
         M168.5,263.1h0.2c0.4,0,0.6,0.3,0.7,0.8c-0.1,0.6-0.4,0.8-0.8,0.8c-0.6-0.1-0.8-0.4-0.8-0.8C167.8,263.4,168.1,263.1,168.5,263.1z
         M167.9,256.9h0.7c0.4,0,0.5,0.2,0.5,0.5l-0.2,0.3c0.1,0.1,0.2,0.4,0.2,0.7v0h-0.4c0-0.4-0.1-0.6-0.2-0.6h-0.4v0.6h-0.3
        c-0.1,0-0.1,0-0.1-0.1V257C167.8,257,167.9,256.9,167.9,256.9z M168.2,263.9L168.2,263.9c0,0.3,0.1,0.4,0.3,0.5h0.2
        c0.2-0.1,0.3-0.3,0.3-0.5v0c0-0.3-0.2-0.5-0.4-0.5C168.3,263.5,168.2,263.6,168.2,263.9z M168.2,257.3v0.4h0.4c0.1,0,0.1,0,0.1-0.1
        v-0.2H168.2z"/>
    <path class="st1" d="M180.3,259.6h3.2v1.1h7.8v2.3h4.8v-2.3h10.3v2.3h-7.1v6.2h-8v0.8h-7.7c-0.1,0-0.1,0-0.1-0.1v-9.2h-3.1V259.6z
         M183.4,235H194c4.4,0,7.5,1.5,9.2,4.5c1.4,2.4,2.1,6.3,2.1,11.7h1v8.3H196v-0.9h3.2v-7.4h-0.9v-3.1c0-3.4-0.8-5.6-2.3-6.6
        c-0.9-0.5-2.4-0.8-4.3-0.8h-1.4v10.2h1v8.5h-7v-7.9h-0.8V235z M191.2,259.6h4.8v1.1h-4.8V259.6z M191.6,257.8h0.3
        c0,0,0.2,0.1,0.4,0.4c0.2-0.2,0.2-0.3,0.2-0.4h0.4v0c-0.3,0.4-0.4,0.6-0.4,0.7l0.5,0.8h-0.5c0-0.1-0.1-0.3-0.3-0.5
        c-0.1,0.3-0.3,0.4-0.4,0.5h-0.3c0.3-0.5,0.4-0.7,0.5-0.8L191.6,257.8z M198.5,257h0.3v0.9h0.2v0.3h-0.2v0.4h-0.3v-0.4h-0.6V258
        C198.3,257.4,198.5,257.1,198.5,257z M198.2,257.9h0.3v-0.3C198.4,257.5,198.3,257.7,198.2,257.9z M200.1,263.2h0.4
        c0.3,0.8,0.4,1.3,0.5,1.6h-0.3c-0.1,0-0.1-0.1-0.2-0.3h-0.5c-0.1,0-0.1,0.1-0.2,0.3h-0.4v0C199.5,264.7,199.7,264.2,200.1,263.2z
         M200.3,263.7c0,0,0,0.2-0.1,0.5h0.3C200.4,263.9,200.3,263.8,200.3,263.7L200.3,263.7z M201.4,263.2h0.4l0.3,1h0
        c0-0.1,0.1-0.4,0.3-1h0.4c0,0.1-0.2,0.7-0.5,1.6H202C201.9,264.8,201.7,264.3,201.4,263.2z M203.4,263.2h0.4v1.6h-0.4V263.2z
         M204.5,263.2h0.7c0.5,0,0.8,0.3,0.8,0.9c0,0.4-0.3,0.6-0.8,0.7h-0.7V263.2z M204.9,263.6v0.9h0.4c0,0,0.1-0.1,0.2-0.2v-0.4
        c0,0-0.1-0.1-0.2-0.2H204.9z M206.4,259.6h6.9v1.1h-6.9V259.6z"/>
    <path class="st1" d="M207.7,269h6.3v0.5h-6.3V269z M208.3,235h7.8c0.9,3.1,2.6,9.4,5.3,18.9h3.1c0.1,0,0.4-1.1,1-3.4
        c1.3-4.4,2.8-9.6,4.4-15.5h7.2v22.7h0.4v4.2h-2.2v0.8h2.2v7.4h-6.2v-2.7h0.8v-8.4h-1.3v-4.2H230l0,0.2h-0.7v6h-2.1v2.8h-1.8v4.7
        H221v-3h-2.7v-4.2h-1.6v-4.3h-0.9c0-0.2-0.2-1-0.6-2.2h6.2l-0.2-0.8h-6.2l0.2,0.8h-0.8v5.4h0.4v6h-1.5v1.1h1.5v1.6h-5.6v-7.2h-1
        V235z M212.5,253.9v0.8h2v-0.8H212.5z M214.4,251.4v0.4c0,0.4,0,1,0,2.1h0.6C214.7,252.3,214.5,251.5,214.4,251.4L214.4,251.4z
         M221.6,254.7c0.3,1.3,0.5,1.9,0.5,1.9h0.7v3.1h1.1v-4.8h0.3v-0.2H221.6z M224.6,253.9l-0.2,0.8h5.6c0.2-0.4,0.2-0.7,0.2-0.8H224.6
        z M230.8,251.4l-0.5,2.4h0.5c0-1,0-1.7,0-2.2L230.8,251.4L230.8,251.4z M230.8,253.9v0.8h4.3v-0.8H230.8z M237.5,261.8h3.5v0.8
        h-3.5V261.8z M237.9,266.5h0.8c0.1,0,0.1,0,0.1,0.1v0.1l-0.6,0.8h0.6v0.3h-1c-0.1,0-0.1-0.1-0.1-0.2c0.1-0.2,0.3-0.5,0.7-0.9h-0.6
        v-0.2C237.8,266.5,237.8,266.5,237.9,266.5z M237.8,262.9h0.3v0.5h0.5V263c0-0.1,0-0.1,0.1-0.1h0.1c0.1,0,0.1,0.1,0.1,0.1v1.1
        c0,0.1,0,0.1-0.1,0.1h-0.2v-0.5h-0.5v0.5h-0.3V262.9z M237.8,264.7h0.8c0.1,0,0.1,0.1,0.1,0.1v0.2h-0.7v0.2h0.5v0.3h-0.5v0.5h-0.3
        V264.7z M237.8,268.2h0.3v0.8l0.1,0.3h0.3c0.1,0,0.1,0,0.1-0.1v-0.8c0-0.1,0-0.1,0.1-0.1h0.1c0.1,0,0.1,0.1,0.1,0.1v0.7
        c0,0.4-0.2,0.5-0.5,0.5h-0.1c-0.2,0-0.4-0.1-0.5-0.3V268.2z"/>
</g>
<g>
    <path class="st2" d="M235.4,115.7l-27.4-63.5c-0.8-1.9-2.2-3.5-4.2-4.8c-2-1.3-4-2-6-2h-95.6c-2,0-4,0.7-6,2
        c-2,1.3-3.4,2.9-4.2,4.8l-27.4,63.5c-1.9,4.7-2.9,9.4-2.9,14.1v55.4c0,2,0.7,3.7,2.2,5.2c1.5,1.5,3.2,2.2,5.2,2.2h161.9
        c2,0,3.7-0.7,5.2-2.2c1.5-1.5,2.2-3.2,2.2-5.2v-55.4C238.3,125.1,237.3,120.4,235.4,115.7z M179.3,126.4l-10.9,22.1h-36.8
        l-10.9-22.1H84.4c0.1-0.2,0.2-0.5,0.3-0.9c0.1-0.5,0.2-0.8,0.3-0.9l24.4-57h81.4l24.4,57c0.1,0.2,0.2,0.5,0.3,0.9
        c0.1,0.4,0.2,0.7,0.3,0.9H179.3z"/>
</g>
</svg>
