<svg version="1.1" id="Layer_1" xmlns="http://www.w3.org/2000/svg" xmlns:xlink="http://www.w3.org/1999/xlink" x="0px" y="0px"
  viewBox="0 0 800 200" style="enable-background:new 0 0 800 200;" xml:space="preserve">
<style type="text/css">
 .st0{fill:#47c347;}
 .st1{fill:#47c347;}
</style>
<g id="Layer_1">
 <g>
  <g>
   <path class="st0" d="M2.1,131.6h11.2v6H2.1V131.6z M67.2,14.9c18.4,0,30.8,5.9,37.1,17.8c4.3,9,6.5,17.8,6.5,26.4h-0.2
    c-12.6,1.1-21.3,1.6-25.9,1.6c0-6.1-1.9-11.3-5.7-15.5c-3.6-2-6.9-3-9.9-3h-4.6c-7.9,0-12.7,3.1-14.4,9.2
    c-0.4,1.8-0.6,3.2-0.6,4.2V58c0,8.7,4.6,15,13.7,18.8c0.8,0.7,7.1,3.6,19.1,8.7c6.4,2.9,12.2,6.6,17.7,10.9v0.2H70.7v3.3h38.5
    v4.6h4.9v50.4h-9.5V181H30.6v-25.9H13.2v-17.4h9.9v-6h-9.9v-4.1H47v27.5h34.6v-41.5H55.7V100H23.6v-3.3h15.6v-0.2
    C25.5,87.5,18.7,74.6,18.7,58v-2.2c0-13.9,4.3-24.4,12.8-31.6C39.2,18,51.1,14.9,67.2,14.9z M74.3,148h1c0.5,0,0.9,1.2,1.4,3.6
    h0.6c0.5-2.4,0.9-3.6,1.3-3.6h1.2c0.3,0.1,0.5,0.3,0.5,0.6v5.1c0,0.4-0.2,0.6-0.5,0.6H79v-3.5h-0.3l-1,3.5h-0.8
    c-0.4,0-0.9-1.2-1.4-3.5h-0.2v3.5h-0.8c-0.4,0-0.6-0.2-0.6-0.6v-5.1C73.8,148.2,74,148,74.3,148z M75.1,139.9h1
    c0.2,0,0.8,0.7,2,2.1c0.5-1.4,1-2.1,1.3-2.1h0.8c0.4,0,0.6,0.2,0.6,0.5c-1.6,1.9-2.4,3.8-2.4,5.8h-0.8c-0.4,0-0.7-1.1-0.8-3.3
    C75.7,141.4,75.1,140.4,75.1,139.9z M76.5,131.6H80c0.4,0.1,0.6,0.3,0.6,0.6v0.8h-3v1h2.7v0.8c0,0.4-0.2,0.6-0.5,0.6h-2.2v1.2h3
    v0.8c0,0.3-0.2,0.5-0.6,0.5h-3.5c-0.4,0-0.6-0.2-0.6-0.5v-5.2C76,131.8,76.2,131.6,76.5,131.6z M106.2,156.5h2.8
    c1.5,0,2.2,0.7,2.2,2.2c-0.4,0-0.6,0.2-0.6,0.5c0.5,0.7,0.8,1.4,0.8,2c-0.5,1.1-1.5,1.6-3,1.6h-1.6c-0.4,0-0.6-0.2-0.6-0.6V156.5
    z M106.2,164.6h1.2c0.4,0,1.2,1.3,2.4,3.8h0.2v-3.8h1.4v5.7c0,0.4-0.2,0.6-0.6,0.6h-0.6c-0.2,0-1-1.2-2.7-3.5v2.9
    c0,0.4-0.2,0.6-0.6,0.6h-0.2c-0.4,0-0.6-0.2-0.6-0.6V164.6z M107.8,157.9v1h1.2c0.3,0,0.5-0.2,0.5-0.6v-0.5H107.8z M107.8,160
    v1.4h1.4c0.4,0,0.6-0.2,0.6-0.6v-0.2c0-0.4-0.2-0.6-0.6-0.6H107.8z M109.2,96.7h11.7v3.3h-11.7V96.7z"/>
   <path class="st0" d="M125.1,14.7H168c25.1,0,41.1,6.5,48.1,19.4c4.1,8.2,6.2,18.6,6.2,31.3c-0.2,2.2-0.3,4.5-0.3,6.9h23.8v8
    h-24.6V80c0.4-4.8,0.6-7.4,0.6-7.8h-13.8v8h13.2v28.2h-27.4v9.8h-0.2c-21.2,0.2-33.1,0.2-35.9,0.2v14.6h-5.8v26h3.3V181h-26
    v-10.2h-3.6v-8.6c0-9.9-0.1-26.1-0.2-48.5h15.8v-8.5h-15.8V14.7z M157.5,42.9v47.3h9.9v-6.9h19.6c2.6-2.4,4-9.1,4-20.2
    c0-10.6-2.4-16.7-7.2-18.2c-1.8-1.3-5.9-2-12.2-2H157.5z M223.1,82h0.8c0.9,0.8,1.4,1.5,1.4,2.2l1.9-2.2h1.2v0.5
    c-1.5,2-2.2,4-2.2,5.8h-0.8c-0.4,0-0.7-1.1-0.8-3.3c-0.3,0-1-0.9-2-2.8L223.1,82z M222.7,90.2h5v1.4h-1.6v4.4
    c0,0.4-0.2,0.6-0.6,0.6h-0.6c-0.3,0-0.5-0.2-0.5-0.6v-4.4h-1.7V90.2z"/>
   <path class="st0" d="M233,34.6H255l0.9,5.8h-23V34.6z M252.8,14.4h32.8c0,16,2.8,29.7,8.4,40.9c6,14.6,10.1,26.1,12.3,34.7v0.2
    h0.3c2.8-10.2,8.6-26.1,17.3-47.5c2.2-10.2,3.4-19.7,3.4-28.4h30.8c-1.9,16.7-4.2,29.1-7,37l-18.5,42.1h-11.3v28.8h-17.1v5.6
    h17.1V181h-31.8c-0.4,0-0.6-0.2-0.6-0.6v-26h-5v-46.1h9.4V104H283c-0.9-1-7.3-15.5-19.3-43.3c-5-11.2-7.6-17.9-7.6-20.2h13.7
    v-5.8H255C253.6,22.3,252.8,15.5,252.8,14.4z M321.4,122.2h13.7v5.6h-13.7V122.2z M322.8,94.4h5.1v1.2l-3.1,4h3.1v0.8
    c0,0.4-0.2,0.6-0.6,0.6h-4.2c-0.4,0-0.6-0.2-0.6-0.6v-0.6l3.1-3.8h-2.9V94.4z"/>
   <path class="st0" d="M359.1,14.5h97.6v27.8h-32.3v115.2H439v3.4h-14.6v12.7h-8.7v4.4h6.2v3.1h-29.6c-0.4,0-0.6-0.2-0.6-0.6V42.2
    h-32.5V14.5z M412.9,157.4v3.4h11.3v-3.4H412.9z"/>
   <path class="st0" d="M513.4,14.5c23.9,0,39.5,8.4,47.1,25.1c4.3,8.1,6.4,23.8,6.4,47.1v0.8h-12.3V93h12.3v60.1h-8.1v21.7h-16.2
    v6.2h-56.5v-6.2h-7v-21.7h-14.5v-17h8.7v-8.8h-8.7v8.8H444v-8.8h15.6c-0.2-13.6-0.2-24.1-0.2-31.3V81.9c0-26.3,4.5-44,13.4-52.9
    C480.9,19.3,494.5,14.5,513.4,14.5z M493,71.9h0.2l-0.2,0.5v15.1h-12.6V93H493c-0.2,23.9-0.3,42-0.3,54.3v5.8h27.9v-9.2h12.8
    v-0.2c0-11.3-0.1-27.1-0.2-47.3c0-0.9,0.1-3,0.2-6.5c0-21.9-1.3-35.4-3.8-40.3c-2.6-4.8-7.5-7.2-14.5-7.2h-4.2
    c-8.4,0-13.6,3.7-15.6,11C494.3,57.1,493.6,63.3,493,71.9z M497.5,137c1.6,0,2.6,1.2,2.8,3.7c0,1.8-1.1,2.8-3.4,3
    c-1.9-0.5-2.8-1.5-2.8-3C494.1,138.2,495.2,137,497.5,137z M496.9,145.3c1.2,0,2.2,0.6,2.8,1.7v0.8h-1.4c0-0.8-0.5-1.2-1.6-1.2
    l-0.8,1.2v1c0,1.2,0.5,1.7,1.6,1.7c0.2,0,0.6-0.5,1.4-1.4h1.2c0,1.6-1,2.5-3.1,2.8c-1.9-0.5-2.8-1.6-2.8-3.1
    C494.3,146.5,495.3,145.3,496.9,145.3z M495.8,139.5v1.2c0,1.1,0.5,1.6,1.6,1.6c0.8-0.2,1.2-0.7,1.2-1.6v-1.2
    c0-0.3-0.4-0.7-1.2-1.2h-0.6C496.6,138.4,496.3,138.7,495.8,139.5z M528.4,137.3h1.6c0,0.5,0.8,2.5,2.3,6h-1.4
    c-0.4,0-0.6-0.3-0.6-1h-2c-0.4,0-0.6,0.3-0.6,1h-1.6v-0.2C526.5,142.4,527.3,140.5,528.4,137.3z M526.7,128.9h4.6v0.6
    c0,0.7-0.9,2.1-2.8,4.2c2.1,0,3.1,0.2,3.1,0.5v0.9h-5.3v-1.2c1.4-1.6,2.3-2.8,2.8-3.6h-2.4V128.9z M526.7,120.6h1.6v2.2h2v-1.6
    c0.1-0.4,0.3-0.6,0.6-0.6h1v6.2h-1.6v-2.6h-2v2.6h-1.6V120.6z M529,139.5l-0.3,1.4h1.2C529.5,140,529.3,139.5,529,139.5z
     M566.8,87.5h20V93h-20V87.5z M568.2,94.1h0.6c0.5,0,0.8,1.1,1,3.4c0.3,0,0.8-1.1,1.4-3.4h0.8c0.5,0,0.9,1.2,1.2,3.6h0.2l0.8-3.6
    h1.4v0.3c-0.9,4-1.5,6-1.9,6h-1.2c0-0.3-0.3-1.5-0.8-3.6h-0.2c-0.3,2.4-0.7,3.6-1.2,3.6h-1.2c-0.5-2.4-1.1-4.4-1.6-6L568.2,94.1z
     M567.9,110.8h1.2c0.9,0.5,1.4,1.2,1.4,2c0.1,0,0.6-0.7,1.6-2h1.2v0.6l-1.6,2.4c0,0.2,0.6,1.2,1.9,3.1v0.2h-1.4l-1.6-2
    c-0.6,1.3-1.1,2-1.4,2h-1.4c1.3-1.9,2-3.1,2-3.4C568.5,112.1,567.9,111.1,567.9,110.8z M568.8,102.4h1c0.5,0,1,1.3,1.7,4h0.2
    c0-0.4,0.3-1.7,1-4h2v6.4h-1.4v-3.3h-0.2c-0.5,2.2-1,3.3-1.4,3.3H571c-0.5-1.7-0.8-2.7-0.8-3h-0.3c0,2-0.2,3-0.6,3h-1V103
    C568.3,102.6,568.5,102.4,568.8,102.4z M568.8,119.2h1.6c1.9,0,2.8,0.7,2.8,2v0.2l-0.6,0.8c0.3,0,0.6,0.3,0.8,0.9v1
    c-0.4,0.9-1.3,1.4-2.8,1.4h-2.4v-5.8C568.3,119.4,568.5,119.2,568.8,119.2z M568.8,127.5h3.6c0.3,0.1,0.5,0.3,0.5,0.6v0.8h-3v1
    h2.8v1.4h-2.8v1.2h3v1.4h-4.6v-5.8C568.3,127.7,568.5,127.5,568.8,127.5z M569.9,120.6v1.2h1.7v-1.2H569.9z M569.9,122.8v1.4h2
    v-0.8c0-0.4-0.2-0.6-0.6-0.6H569.9z"/>
   <path class="st0" d="M643,14.5c23.9,0,39.5,8.4,47.1,25.1c4.3,8.1,6.4,23.8,6.4,47.1v0.8h-12.3V93h12.3v60.1h-8.1v21.7h-16.2v6.2
    h-56.5v-6.2h-7v-21.7h-14.5v-17h8.7v-8.8h-8.7v8.8h-20.6v-8.8h15.6c-0.2-13.6-0.2-24.1-0.2-31.3V81.9c0-26.3,4.5-44,13.4-52.9
    C610.5,19.3,624,14.5,643,14.5z M622.6,71.9h0.2l-0.2,0.5v15.1h-12.6V93h12.6c-0.2,23.9-0.3,42-0.3,54.3v5.8h27.9v-9.2h12.8v-0.2
    c0-11.3-0.1-27.1-0.2-47.3c0-0.9,0.1-3,0.2-6.5c0-21.9-1.3-35.4-3.8-40.3c-2.6-4.8-7.5-7.2-14.5-7.2h-4.2
    c-8.4,0-13.6,3.7-15.6,11C623.9,57.1,623.2,63.3,622.6,71.9z M627,137c1.6,0,2.6,1.2,2.8,3.7c0,1.8-1.1,2.8-3.4,3
    c-1.9-0.5-2.8-1.5-2.8-3C623.7,138.2,624.8,137,627,137z M626.5,145.3c1.2,0,2.2,0.6,2.8,1.7v0.8h-1.4c0-0.8-0.5-1.2-1.6-1.2
    l-0.8,1.2v1c0,1.2,0.5,1.7,1.6,1.7c0.2,0,0.6-0.5,1.4-1.4h1.2c0,1.6-1,2.5-3.1,2.8c-1.9-0.5-2.8-1.6-2.8-3.1
    C623.9,146.5,624.8,145.3,626.5,145.3z M625.4,139.5v1.2c0,1.1,0.5,1.6,1.6,1.6c0.8-0.2,1.2-0.7,1.2-1.6v-1.2
    c0-0.3-0.4-0.7-1.2-1.2h-0.6C626.2,138.4,625.9,138.7,625.4,139.5z M657.9,137.3h1.6c0,0.5,0.8,2.5,2.3,6h-1.4
    c-0.4,0-0.6-0.3-0.6-1h-2c-0.4,0-0.6,0.3-0.6,1h-1.6v-0.2C656.1,142.4,656.9,140.5,657.9,137.3z M656.3,128.9h4.6v0.6
    c0,0.7-0.9,2.1-2.8,4.2c2.1,0,3.1,0.2,3.1,0.5v0.9H656v-1.2c1.4-1.6,2.3-2.8,2.8-3.6h-2.4V128.9z M656.3,120.6h1.6v2.2h2v-1.6
    c0.1-0.4,0.3-0.6,0.6-0.6h1v6.2h-1.6v-2.6h-2v2.6h-1.6V120.6z M658.5,139.5l-0.3,1.4h1.2C659.1,140,658.8,139.5,658.5,139.5z
     M696.4,87.5h20V93h-20V87.5z M697.8,94.1h0.6c0.5,0,0.8,1.1,1,3.4c0.3,0,0.8-1.1,1.4-3.4h0.8c0.5,0,0.9,1.2,1.2,3.6h0.2l0.8-3.6
    h1.4v0.3c-0.9,4-1.5,6-1.9,6h-1.2c0-0.3-0.3-1.5-0.8-3.6h-0.2c-0.3,2.4-0.7,3.6-1.2,3.6h-1.2c-0.5-2.4-1.1-4.4-1.6-6L697.8,94.1z
     M697.5,110.8h1.2c0.9,0.5,1.4,1.2,1.4,2c0.1,0,0.6-0.7,1.6-2h1.2v0.6l-1.6,2.4c0,0.2,0.6,1.2,1.9,3.1v0.2h-1.4l-1.6-2
    c-0.6,1.3-1.1,2-1.4,2h-1.4c1.3-1.9,2-3.1,2-3.4C698,112.1,697.5,111.1,697.5,110.8z M698.4,102.4h1c0.5,0,1,1.3,1.7,4h0.2
    c0-0.4,0.3-1.7,1-4h2v6.4H703v-3.3h-0.2c-0.5,2.2-1,3.3-1.4,3.3h-0.8c-0.5-1.7-0.8-2.7-0.8-3h-0.3c0,2-0.2,3-0.6,3h-1V103
    C697.9,102.6,698.1,102.4,698.4,102.4z M698.4,119.2h1.6c1.9,0,2.8,0.7,2.8,2v0.2l-0.6,0.8c0.3,0,0.6,0.3,0.8,0.9v1
    c-0.4,0.9-1.3,1.4-2.8,1.4h-2.4v-5.8C697.9,119.4,698.1,119.2,698.4,119.2z M698.4,127.5h3.6c0.3,0.1,0.5,0.3,0.5,0.6v0.8h-3v1
    h2.8v1.4h-2.8v1.2h3v1.4h-4.6v-5.8C697.9,127.7,698.1,127.5,698.4,127.5z M699.4,120.6v1.2h1.7v-1.2H699.4z M699.4,122.8v1.4h2
    v-0.8c0-0.4-0.2-0.6-0.6-0.6H699.4z"/>
   <path class="st0" d="M710.7,14.5h33v68.3h-6.4v70.5h49.2v14.8h-9.8v3.4h9.8v9.5h-31.8v-2.6h-43.7c-0.2-1.9-0.2-3.3-0.2-4.2v-37.2
    h8.4v-5h-8.4V14.5z M739.5,144.6h2c0.9,1.3,1.5,2,1.6,2c0.6-1.3,1.1-2,1.4-2h1.7c-0.2,0.6-1,1.7-2.2,3.4c0.4,0.8,1.2,2.1,2.4,4
    h-2c-0.9-0.9-1.4-1.6-1.4-2.3c-0.2,0-0.8,0.8-2,2.3h-1.6v-0.3l2.2-3.4V148L739.5,144.6z M786.5,168.1h12.1v3.4h-12.1V168.1z"/>
  </g>
 </g>
 <g>
  <g>
   <path class="st1" d="M2.1,131.6h11.2v6H2.1V131.6z M67.2,14.9c18.4,0,30.8,5.9,37.1,17.8c4.3,9,6.5,17.8,6.5,26.4h-0.2
    c-12.6,1.1-21.3,1.6-25.9,1.6c0-6.1-1.9-11.3-5.7-15.5c-3.6-2-6.9-3-9.9-3h-4.6c-7.9,0-12.7,3.1-14.4,9.2
    c-0.4,1.8-0.6,3.2-0.6,4.2V58c0,8.7,4.6,15,13.7,18.8c0.8,0.7,7.1,3.6,19.1,8.7c6.4,2.9,12.2,6.6,17.7,10.9v0.2H70.7v3.3h38.5
    v4.6h4.9v50.4h-9.5V181H30.6v-25.9H13.2v-17.4h9.9v-6h-9.9v-4.1H47v27.5h34.6v-41.5H55.7V100H23.6v-3.3h15.6v-0.2
    C25.5,87.5,18.7,74.6,18.7,58v-2.2c0-13.9,4.3-24.4,12.8-31.6C39.2,18,51.1,14.9,67.2,14.9z M74.3,148h1c0.5,0,0.9,1.2,1.4,3.6
    h0.6c0.5-2.4,0.9-3.6,1.3-3.6h1.2c0.3,0.1,0.5,0.3,0.5,0.6v5.1c0,0.4-0.2,0.6-0.5,0.6H79v-3.5h-0.3l-1,3.5h-0.8
    c-0.4,0-0.9-1.2-1.4-3.5h-0.2v3.5h-0.8c-0.4,0-0.6-0.2-0.6-0.6v-5.1C73.8,148.2,74,148,74.3,148z M75.1,139.9h1
    c0.2,0,0.8,0.7,2,2.1c0.5-1.4,1-2.1,1.3-2.1h0.8c0.4,0,0.6,0.2,0.6,0.5c-1.6,1.9-2.4,3.8-2.4,5.8h-0.8c-0.4,0-0.7-1.1-0.8-3.3
    C75.7,141.4,75.1,140.4,75.1,139.9z M76.5,131.6H80c0.4,0.1,0.6,0.3,0.6,0.6v0.8h-3v1h2.7v0.8c0,0.4-0.2,0.6-0.5,0.6h-2.2v1.2h3
    v0.8c0,0.3-0.2,0.5-0.6,0.5h-3.5c-0.4,0-0.6-0.2-0.6-0.5v-5.2C76,131.8,76.2,131.6,76.5,131.6z M106.2,156.5h2.8
    c1.5,0,2.2,0.7,2.2,2.2c-0.4,0-0.6,0.2-0.6,0.5c0.5,0.7,0.8,1.4,0.8,2c-0.5,1.1-1.5,1.6-3,1.6h-1.6c-0.4,0-0.6-0.2-0.6-0.6V156.5
    z M106.2,164.6h1.2c0.4,0,1.2,1.3,2.4,3.8h0.2v-3.8h1.4v5.7c0,0.4-0.2,0.6-0.6,0.6h-0.6c-0.2,0-1-1.2-2.7-3.5v2.9
    c0,0.4-0.2,0.6-0.6,0.6h-0.2c-0.4,0-0.6-0.2-0.6-0.6V164.6z M107.8,157.9v1h1.2c0.3,0,0.5-0.2,0.5-0.6v-0.5H107.8z M107.8,160
    v1.4h1.4c0.4,0,0.6-0.2,0.6-0.6v-0.2c0-0.4-0.2-0.6-0.6-0.6H107.8z M109.2,96.7h11.7v3.3h-11.7V96.7z"/>
   <path class="st1" d="M125.1,14.7H168c25.1,0,41.1,6.5,48.1,19.4c4.1,8.2,6.2,18.6,6.2,31.3c-0.2,2.2-0.3,4.5-0.3,6.9h23.8v8
    h-24.6V80c0.4-4.8,0.6-7.4,0.6-7.8h-13.8v8h13.2v28.2h-27.4v9.8h-0.2c-21.2,0.2-33.1,0.2-35.9,0.2v14.6h-5.8v26h3.3V181h-26
    v-10.2h-3.6v-8.6c0-9.9-0.1-26.1-0.2-48.5h15.8v-8.5h-15.8V14.7z M157.5,42.9v47.3h9.9v-6.9h19.6c2.6-2.4,4-9.1,4-20.2
    c0-10.6-2.4-16.7-7.2-18.2c-1.8-1.3-5.9-2-12.2-2H157.5z M223.1,82h0.8c0.9,0.8,1.4,1.5,1.4,2.2l1.9-2.2h1.2v0.5
    c-1.5,2-2.2,4-2.2,5.8h-0.8c-0.4,0-0.7-1.1-0.8-3.3c-0.3,0-1-0.9-2-2.8L223.1,82z M222.7,90.2h5v1.4h-1.6v4.4
    c0,0.4-0.2,0.6-0.6,0.6h-0.6c-0.3,0-0.5-0.2-0.5-0.6v-4.4h-1.7V90.2z"/>
   <path class="st1" d="M233,34.6H255l0.9,5.8h-23V34.6z M252.8,14.4h32.8c0,16,2.8,29.7,8.4,40.9c6,14.6,10.1,26.1,12.3,34.7v0.2
    h0.3c2.8-10.2,8.6-26.1,17.3-47.5c2.2-10.2,3.4-19.7,3.4-28.4h30.8c-1.9,16.7-4.2,29.1-7,37l-18.5,42.1h-11.3v28.8h-17.1v5.6
    h17.1V181h-31.8c-0.4,0-0.6-0.2-0.6-0.6v-26h-5v-46.1h9.4V104H283c-0.9-1-7.3-15.5-19.3-43.3c-5-11.2-7.6-17.9-7.6-20.2h13.7
    v-5.8H255C253.6,22.3,252.8,15.5,252.8,14.4z M321.4,122.2h13.7v5.6h-13.7V122.2z M322.8,94.4h5.1v1.2l-3.1,4h3.1v0.8
    c0,0.4-0.2,0.6-0.6,0.6h-4.2c-0.4,0-0.6-0.2-0.6-0.6v-0.6l3.1-3.8h-2.9V94.4z"/>
   <path class="st1" d="M359.1,14.5h97.6v27.8h-32.3v115.2H439v3.4h-14.6v12.7h-8.7v4.4h6.2v3.1h-29.6c-0.4,0-0.6-0.2-0.6-0.6V42.2
    h-32.5V14.5z M412.9,157.4v3.4h11.3v-3.4H412.9z"/>
   <path class="st1" d="M513.4,14.5c23.9,0,39.5,8.4,47.1,25.1c4.3,8.1,6.4,23.8,6.4,47.1v0.8h-12.3V93h12.3v60.1h-8.1v21.7h-16.2
    v6.2h-56.5v-6.2h-7v-21.7h-14.5v-17h8.7v-8.8h-8.7v8.8H444v-8.8h15.6c-0.2-13.6-0.2-24.1-0.2-31.3V81.9c0-26.3,4.5-44,13.4-52.9
    C480.9,19.3,494.5,14.5,513.4,14.5z M493,71.9h0.2l-0.2,0.5v15.1h-12.6V93H493c-0.2,23.9-0.3,42-0.3,54.3v5.8h27.9v-9.2h12.8
    v-0.2c0-11.3-0.1-27.1-0.2-47.3c0-0.9,0.1-3,0.2-6.5c0-21.9-1.3-35.4-3.8-40.3c-2.6-4.8-7.5-7.2-14.5-7.2h-4.2
    c-8.4,0-13.6,3.7-15.6,11C494.3,57.1,493.6,63.3,493,71.9z M497.5,137c1.6,0,2.6,1.2,2.8,3.7c0,1.8-1.1,2.8-3.4,3
    c-1.9-0.5-2.8-1.5-2.8-3C494.1,138.2,495.2,137,497.5,137z M496.9,145.3c1.2,0,2.2,0.6,2.8,1.7v0.8h-1.4c0-0.8-0.5-1.2-1.6-1.2
    l-0.8,1.2v1c0,1.2,0.5,1.7,1.6,1.7c0.2,0,0.6-0.5,1.4-1.4h1.2c0,1.6-1,2.5-3.1,2.8c-1.9-0.5-2.8-1.6-2.8-3.1
    C494.3,146.5,495.3,145.3,496.9,145.3z M495.8,139.5v1.2c0,1.1,0.5,1.6,1.6,1.6c0.8-0.2,1.2-0.7,1.2-1.6v-1.2
    c0-0.3-0.4-0.7-1.2-1.2h-0.6C496.6,138.4,496.3,138.7,495.8,139.5z M528.4,137.3h1.6c0,0.5,0.8,2.5,2.3,6h-1.4
    c-0.4,0-0.6-0.3-0.6-1h-2c-0.4,0-0.6,0.3-0.6,1h-1.6v-0.2C526.5,142.4,527.3,140.5,528.4,137.3z M526.7,128.9h4.6v0.6
    c0,0.7-0.9,2.1-2.8,4.2c2.1,0,3.1,0.2,3.1,0.5v0.9h-5.3v-1.2c1.4-1.6,2.3-2.8,2.8-3.6h-2.4V128.9z M526.7,120.6h1.6v2.2h2v-1.6
    c0.1-0.4,0.3-0.6,0.6-0.6h1v6.2h-1.6v-2.6h-2v2.6h-1.6V120.6z M529,139.5l-0.3,1.4h1.2C529.5,140,529.3,139.5,529,139.5z
     M566.8,87.5h20V93h-20V87.5z M568.2,94.1h0.6c0.5,0,0.8,1.1,1,3.4c0.3,0,0.8-1.1,1.4-3.4h0.8c0.5,0,0.9,1.2,1.2,3.6h0.2l0.8-3.6
    h1.4v0.3c-0.9,4-1.5,6-1.9,6h-1.2c0-0.3-0.3-1.5-0.8-3.6h-0.2c-0.3,2.4-0.7,3.6-1.2,3.6h-1.2c-0.5-2.4-1.1-4.4-1.6-6L568.2,94.1z
     M567.9,110.8h1.2c0.9,0.5,1.4,1.2,1.4,2c0.1,0,0.6-0.7,1.6-2h1.2v0.6l-1.6,2.4c0,0.2,0.6,1.2,1.9,3.1v0.2h-1.4l-1.6-2
    c-0.6,1.3-1.1,2-1.4,2h-1.4c1.3-1.9,2-3.1,2-3.4C568.5,112.1,567.9,111.1,567.9,110.8z M568.8,102.4h1c0.5,0,1,1.3,1.7,4h0.2
    c0-0.4,0.3-1.7,1-4h2v6.4h-1.4v-3.3h-0.2c-0.5,2.2-1,3.3-1.4,3.3H571c-0.5-1.7-0.8-2.7-0.8-3h-0.3c0,2-0.2,3-0.6,3h-1V103
    C568.3,102.6,568.5,102.4,568.8,102.4z M568.8,119.2h1.6c1.9,0,2.8,0.7,2.8,2v0.2l-0.6,0.8c0.3,0,0.6,0.3,0.8,0.9v1
    c-0.4,0.9-1.3,1.4-2.8,1.4h-2.4v-5.8C568.3,119.4,568.5,119.2,568.8,119.2z M568.8,127.5h3.6c0.3,0.1,0.5,0.3,0.5,0.6v0.8h-3v1
    h2.8v1.4h-2.8v1.2h3v1.4h-4.6v-5.8C568.3,127.7,568.5,127.5,568.8,127.5z M569.9,120.6v1.2h1.7v-1.2H569.9z M569.9,122.8v1.4h2
    v-0.8c0-0.4-0.2-0.6-0.6-0.6H569.9z"/>
   <path class="st1" d="M643,14.5c23.9,0,39.5,8.4,47.1,25.1c4.3,8.1,6.4,23.8,6.4,47.1v0.8h-12.3V93h12.3v60.1h-8.1v21.7h-16.2v6.2
    h-56.5v-6.2h-7v-21.7h-14.5v-17h8.7v-8.8h-8.7v8.8h-20.6v-8.8h15.6c-0.2-13.6-0.2-24.1-0.2-31.3V81.9c0-26.3,4.5-44,13.4-52.9
    C610.5,19.3,624,14.5,643,14.5z M622.6,71.9h0.2l-0.2,0.5v15.1h-12.6V93h12.6c-0.2,23.9-0.3,42-0.3,54.3v5.8h27.9v-9.2h12.8v-0.2
    c0-11.3-0.1-27.1-0.2-47.3c0-0.9,0.1-3,0.2-6.5c0-21.9-1.3-35.4-3.8-40.3c-2.6-4.8-7.5-7.2-14.5-7.2h-4.2
    c-8.4,0-13.6,3.7-15.6,11C623.9,57.1,623.2,63.3,622.6,71.9z M627,137c1.6,0,2.6,1.2,2.8,3.7c0,1.8-1.1,2.8-3.4,3
    c-1.9-0.5-2.8-1.5-2.8-3C623.7,138.2,624.8,137,627,137z M626.5,145.3c1.2,0,2.2,0.6,2.8,1.7v0.8h-1.4c0-0.8-0.5-1.2-1.6-1.2
    l-0.8,1.2v1c0,1.2,0.5,1.7,1.6,1.7c0.2,0,0.6-0.5,1.4-1.4h1.2c0,1.6-1,2.5-3.1,2.8c-1.9-0.5-2.8-1.6-2.8-3.1
    C623.9,146.5,624.8,145.3,626.5,145.3z M625.4,139.5v1.2c0,1.1,0.5,1.6,1.6,1.6c0.8-0.2,1.2-0.7,1.2-1.6v-1.2
    c0-0.3-0.4-0.7-1.2-1.2h-0.6C626.2,138.4,625.9,138.7,625.4,139.5z M657.9,137.3h1.6c0,0.5,0.8,2.5,2.3,6h-1.4
    c-0.4,0-0.6-0.3-0.6-1h-2c-0.4,0-0.6,0.3-0.6,1h-1.6v-0.2C656.1,142.4,656.9,140.5,657.9,137.3z M656.3,128.9h4.6v0.6
    c0,0.7-0.9,2.1-2.8,4.2c2.1,0,3.1,0.2,3.1,0.5v0.9H656v-1.2c1.4-1.6,2.3-2.8,2.8-3.6h-2.4V128.9z M656.3,120.6h1.6v2.2h2v-1.6
    c0.1-0.4,0.3-0.6,0.6-0.6h1v6.2h-1.6v-2.6h-2v2.6h-1.6V120.6z M658.5,139.5l-0.3,1.4h1.2C659.1,140,658.8,139.5,658.5,139.5z
     M696.4,87.5h20V93h-20V87.5z M697.8,94.1h0.6c0.5,0,0.8,1.1,1,3.4c0.3,0,0.8-1.1,1.4-3.4h0.8c0.5,0,0.9,1.2,1.2,3.6h0.2l0.8-3.6
    h1.4v0.3c-0.9,4-1.5,6-1.9,6h-1.2c0-0.3-0.3-1.5-0.8-3.6h-0.2c-0.3,2.4-0.7,3.6-1.2,3.6h-1.2c-0.5-2.4-1.1-4.4-1.6-6L697.8,94.1z
     M697.5,110.8h1.2c0.9,0.5,1.4,1.2,1.4,2c0.1,0,0.6-0.7,1.6-2h1.2v0.6l-1.6,2.4c0,0.2,0.6,1.2,1.9,3.1v0.2h-1.4l-1.6-2
    c-0.6,1.3-1.1,2-1.4,2h-1.4c1.3-1.9,2-3.1,2-3.4C698,112.1,697.5,111.1,697.5,110.8z M698.4,102.4h1c0.5,0,1,1.3,1.7,4h0.2
    c0-0.4,0.3-1.7,1-4h2v6.4H703v-3.3h-0.2c-0.5,2.2-1,3.3-1.4,3.3h-0.8c-0.5-1.7-0.8-2.7-0.8-3h-0.3c0,2-0.2,3-0.6,3h-1V103
    C697.9,102.6,698.1,102.4,698.4,102.4z M698.4,119.2h1.6c1.9,0,2.8,0.7,2.8,2v0.2l-0.6,0.8c0.3,0,0.6,0.3,0.8,0.9v1
    c-0.4,0.9-1.3,1.4-2.8,1.4h-2.4v-5.8C697.9,119.4,698.1,119.2,698.4,119.2z M698.4,127.5h3.6c0.3,0.1,0.5,0.3,0.5,0.6v0.8h-3v1
    h2.8v1.4h-2.8v1.2h3v1.4h-4.6v-5.8C697.9,127.7,698.1,127.5,698.4,127.5z M699.4,120.6v1.2h1.7v-1.2H699.4z M699.4,122.8v1.4h2
    v-0.8c0-0.4-0.2-0.6-0.6-0.6H699.4z"/>
   <path class="st1" d="M710.7,14.5h33v68.3h-6.4v70.5h49.2v14.8h-9.8v3.4h9.8v9.5h-31.8v-2.6h-43.7c-0.2-1.9-0.2-3.3-0.2-4.2v-37.2
    h8.4v-5h-8.4V14.5z M739.5,144.6h2c0.9,1.3,1.5,2,1.6,2c0.6-1.3,1.1-2,1.4-2h1.7c-0.2,0.6-1,1.7-2.2,3.4c0.4,0.8,1.2,2.1,2.4,4
    h-2c-0.9-0.9-1.4-1.6-1.4-2.3c-0.2,0-0.8,0.8-2,2.3h-1.6v-0.3l2.2-3.4V148L739.5,144.6z M786.5,168.1h12.1v3.4h-12.1V168.1z"/>
  </g>
 </g>
</g>
</svg>

