<?xml version="1.0" encoding="utf-8"?>
<!-- Generator: Adobe Illustrator 20.0.0, SVG Export Plug-In . SVG Version: 6.00 Build 0)  -->
<svg version="1.1" id="Layer_1" xmlns="http://www.w3.org/2000/svg" xmlns:xlink="http://www.w3.org/1999/xlink" x="0px" y="0px"
     viewBox="0 0 300 300" style="enable-background:new 0 0 300 300;" xml:space="preserve">
<style type="text/css">
    .st0{fill:none;stroke:#00d300;stroke-width:10;stroke-miterlimit:10;}
    .st1{fill:#00d300;}
</style>
<path class="st0" d="M240.6,223.3H59.4c-6.6,0-12-5.4-12-12V26.8c0-6.6,5.4-12,12-12h181.2c6.6,0,12,5.4,12,12v184.5
    C252.6,217.9,247.2,223.3,240.6,223.3z"/>
<g>
    <path class="st1" d="M150,34.9c-49,0-88.8,35.6-88.8,79.6c0,16.2,5.4,31.2,14.7,43.8c-1.2,14.5-4.7,35-14.7,44.9
        c0,0,30.4-4.3,51-16.7c0,0,0,0,0.1,0c8.5-5.5,16.9-11.2,18.7-12.6c0.9-1.3,2.7-1.7,4.1-0.8c0.9,0.5,1.5,1.5,1.5,2.6
        c0,1.9,0,2.4-17.1,13.5c9.5,3.1,19.8,4.9,30.5,4.9c49,0,88.8-35.6,88.8-79.6S199,34.9,150,34.9z"/>
</g>
<g>
    <path class="st1" d="M55.5,266h6.2v0.5h-6.2V266z M56,232.2h7.8c0.9,3.1,2.6,9.4,5.3,18.8h3.1c0.1,0,0.4-1.1,1-3.3
        c1.3-4.4,2.7-9.6,4.3-15.4h7.2v22.6h0.4v4.1h-2.2v0.8h2.2v7.3H79v-2.7h0.8v-8.3h-1.3v-4.2h-0.8l0,0.2H77v5.9h-2.1v2.8H73v4.7h-4.3
        v-3h-2.6v-4.1h-1.6V254h-0.9c0-0.2-0.2-1-0.6-2.2h6.2l-0.2-0.8h-6.2l0.2,0.8h-0.8v5.4h0.4v5.9h-1.5v1h1.5v1.6h-5.5v-7.2h-1V232.2z
         M60.2,250.9v0.8h1.9v-0.8H60.2z M62.1,248.5v0.4c0,0.4,0,1,0.1,2.1h0.6C62.4,249.4,62.2,248.6,62.1,248.5L62.1,248.5z M69.3,251.8
        c0.3,1.3,0.4,1.9,0.5,1.9h0.7v3.1h1.1v-4.8H72v-0.2H69.3z M72.2,250.9l-0.2,0.8h5.5c0.1-0.4,0.2-0.7,0.2-0.8H72.2z M78.4,248.5
        l-0.5,2.4h0.5c0-1,0.1-1.7,0.1-2.2L78.4,248.5L78.4,248.5z M78.5,250.9v0.8h4.2v-0.8H78.5z M85.1,258.9h3.5v0.8h-3.5V258.9z"/>
    <path class="st1" d="M90.2,232.3h17.1v5.7c0,0.1,0,0.1-0.1,0.1H97v7.5h9.1v0.1c0,0.2,0,1.4-0.1,3.7c0,0-0.1,0-0.1,0h0.4v1.8h-7.9
        v7.1h-2.1v0.7h2.1v2.2h8.9v0.8h-0.7v4.3H96v0.8h-5.1v-12.5h-0.8v-4.4h-5.6v-0.8h5.6V232.3z M90.2,249.4v0.8h2.9v-0.8H90.2z"/>
    <path class="st1" d="M108.3,256.6h2.3v1.3h-2.3V256.6z M122,232.1c3.9,0,6.5,1.2,7.8,3.7c0.9,1.9,1.4,3.7,1.4,5.5h0
        c-2.7,0.2-4.5,0.3-5.4,0.3c0-1.3-0.4-2.4-1.2-3.2c-0.7-0.4-1.4-0.6-2.1-0.6h-1c-1.7,0-2.7,0.6-3,1.9c-0.1,0.4-0.1,0.7-0.1,0.9v0.5
        c0,1.8,1,3.1,2.9,4c0.2,0.1,1.5,0.8,4,1.8c1.3,0.6,2.6,1.4,3.7,2.3v0h-6.1v0.7h8.1v1h1v10.6h-2v5.4h-15.5v-5.4h-3.7v-3.7h2.1v-1.3
        h-2.1v-0.9h7.1v5.8h7.3v-8.7h-5.4V250h-6.8v-0.7h3.3v0c-2.9-1.9-4.3-4.6-4.3-8.1v-0.5c0-2.9,0.9-5.1,2.7-6.6
        C116.1,232.8,118.6,232.1,122,232.1z M130.8,249.3h2.5v0.7h-2.5V249.3z"/>
    <path class="st1" d="M131.8,256.6h2.3v1.3h-2.3V256.6z M145.5,232.1c3.9,0,6.5,1.2,7.8,3.7c0.9,1.9,1.4,3.7,1.4,5.5h0
        c-2.7,0.2-4.5,0.3-5.4,0.3c0-1.3-0.4-2.4-1.2-3.2c-0.7-0.4-1.4-0.6-2.1-0.6h-1c-1.7,0-2.7,0.6-3,1.9c-0.1,0.4-0.1,0.7-0.1,0.9v0.5
        c0,1.8,1,3.1,2.9,4c0.2,0.1,1.5,0.8,4,1.8c1.3,0.6,2.6,1.4,3.7,2.3v0h-6.1v0.7h8.1v1h1v10.6h-2v5.4h-15.5v-5.4h-3.7v-3.7h2.1v-1.3
        h-2.1v-0.9h7.1v5.8h7.3v-8.7h-5.4V250h-6.8v-0.7h3.3v0c-2.9-1.9-4.3-4.6-4.3-8.1v-0.5c0-2.9,0.9-5.1,2.7-6.6
        C139.6,232.8,142.1,232.1,145.5,232.1z M154.3,249.3h2.5v0.7h-2.5V249.3z"/>
    <path class="st1" d="M155.5,251.1h4.6v1h-4.6V251.1z M168.1,232.1h5.9c0.1,0.3,2,6.7,5.7,19.1h1.1v11.5h-2.4v0.9h2.4v2.5h-6.5v-7.1
        h-7.9v3h-3.2v5.1h-5.9v-0.3h0.5v-4.7h2.4v-9.8h2L168.1,232.1z M170.9,241.9L170.9,241.9c-0.5,2.8-1.5,7.2-2.9,13.2h5.5v-4H173
        c-1.3-5.6-2-8.7-2-9.2H170.9z M174.3,266.4h7.8v0.6h-7.8V266.4z"/>
    <path class="st1" d="M194.1,232.1L194.1,232.1c5.3,0,8.5,1.7,9.6,5.1c0.5,1.3,0.8,3,0.8,5.3l-5.7,0.8l-0.1-0.1V243
        c0-2.8-0.9-4.4-2.8-4.9c-0.6-0.2-1.2-0.3-2.1-0.3c-2,0-3.3,1.1-3.9,3.2c-0.3,1.4-0.5,3.1-0.5,5.1v2.7c0,3.2,0,5.6,0.1,7.2h1.4v4.9
        h6.9v-8.3h-4.4v-4.5h13.2v1h-1.7v5.2h-3.5v1.6h1.7v9.9h-18.9v-5.3h-2.1V260h0.9v-0.5h1.2v-2h-3.3v-4.2h1.6c0-1.2,0-1.9,0-2.1
        c0-7.4,0.4-11.8,1.2-13.4c0.2-1,0.9-2,2-3.2C187.5,232.9,190.3,232.1,194.1,232.1z M189.3,266.3h7.2v0.7h-7.2V266.3z"/>
    <path class="st1" d="M209.4,232.3h17.1v5.7c0,0.1,0,0.1-0.1,0.1h-10.2v7.5h9.1v0.1c0,0.2,0,1.4-0.1,3.7c0,0-0.1,0-0.1,0h0.4v1.8
        h-7.9v7.1h-2.1v0.7h2.1v2.2h8.9v0.8h-0.7v4.3h-10.7v0.8h-5.1v-12.5h-0.8v-4.4h-5.6v-0.8h5.6V232.3z M209.5,249.4v0.8h2.9v-0.8
        H209.5z"/>
    <path class="st1" d="M227.5,256.6h2.3v1.3h-2.3V256.6z M241.2,232.1c3.9,0,6.5,1.2,7.8,3.7c0.9,1.9,1.4,3.7,1.4,5.5h0
        c-2.7,0.2-4.5,0.3-5.4,0.3c0-1.3-0.4-2.4-1.2-3.2c-0.7-0.4-1.4-0.6-2.1-0.6h-1c-1.7,0-2.7,0.6-3,1.9c-0.1,0.4-0.1,0.7-0.1,0.9v0.5
        c0,1.8,1,3.1,2.9,4c0.2,0.1,1.5,0.8,4,1.8c1.3,0.6,2.6,1.4,3.7,2.3v0h-6.1v0.7h8.1v1h1v10.6h-2v5.4h-15.5v-5.4h-3.7v-3.7h2.1v-1.3
        h-2.1v-0.9h7.1v5.8h7.3v-8.7h-5.4V250H232v-0.7h3.3v0c-2.9-1.9-4.3-4.6-4.3-8.1v-0.5c0-2.9,0.9-5.1,2.7-6.6
        C235.3,232.8,237.8,232.1,241.2,232.1z M250,249.3h2.5v0.7H250V249.3z"/>
</g>
</svg>
