<?xml version="1.0" encoding="utf-8"?>
<!-- Generator: Adobe Illustrator 20.0.0, SVG Export Plug-In . SVG Version: 6.00 Build 0)  -->
<svg version="1.1" id="Layer_1" xmlns="http://www.w3.org/2000/svg" xmlns:xlink="http://www.w3.org/1999/xlink" x="0px" y="0px"
     viewBox="0 0 300 300" style="enable-background:new 0 0 300 300;" xml:space="preserve">
<style type="text/css">
    .st0{fill:none;stroke:#00d300;stroke-width:10;stroke-miterlimit:10;}
    .st1{fill:#00d300;}
    .st2{fill:#00d300;}
</style>
<path class="st0" d="M240.6,223.3H59.4c-6.6,0-12-5.4-12-12V26.8c0-6.6,5.4-12,12-12h181.2c6.6,0,12,5.4,12,12v184.5
    C252.6,217.9,247.2,223.3,240.6,223.3z"/>
<path class="st1" d="M151.2,209c-0.5,0-1,0-1.5,0h0c-0.3,0-0.6,0-1,0c-11.4,0-18.6-5.2-25.7-10.1c-4.9-3.4-9.5-6.7-14.9-7.6
    c-2.6-0.4-5.3-0.7-7.8-0.7c-4.6,0-8.2,0.7-10.8,1.2c-1.6,0.3-3,0.6-4,0.6c-1.1,0-2.3-0.2-2.8-2c-0.4-1.5-0.8-3-1.1-4.4
    c-0.8-3.7-1.4-6-2.9-6.2c-18-2.8-23.2-6.6-24.3-9.3c-0.2-0.4-0.3-0.8-0.3-1.2c-0.1-1,0.7-1.9,1.7-2.1c27.7-4.6,40.1-32.9,40.6-34.1
    c0,0,0-0.1,0-0.1c1.7-3.4,2-6.4,1-8.9c-1.9-4.5-8.1-6.4-12.2-7.7c-1-0.3-2-0.6-2.7-0.9c-8.2-3.2-8.9-6.6-8.5-8.3
    c0.5-2.9,4.4-4.9,7.5-4.9c0.9,0,1.6,0.2,2.2,0.4c3.7,1.7,7,2.6,9.9,2.6c4,0,5.7-1.7,5.9-1.9c-0.1-1.9-0.2-3.8-0.4-5.9
    c-0.8-13.1-1.8-29.4,2.3-38.6c12.4-27.8,38.7-30,46.5-30c0.2,0,3.4,0,3.4,0l0.5,0c7.8,0,34.2,2.2,46.6,30c4.1,9.3,3.1,25.6,2.3,38.7
    l0,0.6c-0.1,1.8-0.2,3.6-0.3,5.3c0.2,0.2,1.8,1.7,5.4,1.9h0c2.7-0.1,5.9-1,9.3-2.6c1-0.5,2.1-0.6,2.9-0.6c1.2,0,2.3,0.2,3.3,0.6
    l0.1,0c2.8,1,4.6,2.9,4.6,5c0,1.9-1.4,4.8-8.6,7.6c-0.7,0.3-1.7,0.6-2.7,0.9c-4.1,1.3-10.3,3.3-12.2,7.7c-1,2.4-0.7,5.4,1,8.9
    c0,0,0,0.1,0,0.1c0.5,1.2,12.9,29.5,40.6,34.1c1,0.2,1.8,1.1,1.7,2.1c0,0.4-0.1,0.8-0.3,1.2c-1.1,2.7-6.3,6.5-24.3,9.2
    c-1.5,0.2-2,2.1-2.9,6.2c-0.3,1.5-0.6,2.9-1.1,4.4c-0.4,1.3-1.2,1.9-2.6,1.9h-0.2c-1,0-2.3-0.2-4-0.5c-3.1-0.6-6.5-1.1-10.8-1.1
    c-2.5,0-5.2,0.2-7.8,0.7c-5.4,0.9-10,4.1-14.9,7.6C169.9,203.8,162.6,209,151.2,209z"/>
<g>
    <path class="st2" d="M52.3,255.6h2.3v1.3h-2.3V255.6z M66,231.1c3.9,0,6.5,1.2,7.8,3.7c0.9,1.9,1.4,3.7,1.4,5.5h0
        c-2.7,0.2-4.5,0.3-5.4,0.3c0-1.3-0.4-2.4-1.2-3.2c-0.7-0.4-1.4-0.6-2.1-0.6h-1c-1.7,0-2.7,0.6-3,1.9c-0.1,0.4-0.1,0.7-0.1,0.9v0.5
        c0,1.8,1,3.1,2.9,4c0.2,0.1,1.5,0.8,4,1.8c1.3,0.6,2.6,1.4,3.7,2.3v0h-6.1v0.7h8.1v1h1v10.6h-2v5.4H58.3v-5.4h-3.7v-3.7h2.1v-1.3
        h-2.1v-0.9h7.1v5.8H69v-8.7h-5.4V249h-6.8v-0.7H60v0c-2.9-1.9-4.3-4.6-4.3-8.1v-0.5c0-2.9,0.9-5.1,2.7-6.6
        C60.1,231.8,62.6,231.1,66,231.1z M67.4,259.1h0.2c0.1,0,0.2,0.3,0.3,0.8h0.1c0.1-0.5,0.2-0.8,0.3-0.8h0.2c0.1,0,0.1,0.1,0.1,0.1
        v1.1c0,0.1,0,0.1-0.1,0.1h-0.2v-0.7h-0.1l-0.2,0.7H68c-0.1,0-0.2-0.2-0.3-0.7h0v0.7h-0.2c-0.1,0-0.1,0-0.1-0.1v-1.1
        C67.3,259.1,67.4,259.1,67.4,259.1z M67.6,257.4h0.2c0,0,0.2,0.1,0.4,0.4c0.1-0.3,0.2-0.4,0.3-0.4h0.2c0.1,0,0.1,0,0.1,0.1
        c-0.3,0.4-0.5,0.8-0.5,1.2h-0.2c-0.1,0-0.1-0.2-0.2-0.7C67.7,257.7,67.6,257.5,67.6,257.4z M67.9,255.6h0.7c0.1,0,0.1,0.1,0.1,0.1
        v0.2h-0.6v0.2h0.6v0.2c0,0.1,0,0.1-0.1,0.1h-0.5v0.2h0.6v0.2c0,0.1,0,0.1-0.1,0.1h-0.7c-0.1,0-0.1,0-0.1-0.1v-1.1
        C67.8,255.7,67.8,255.6,67.9,255.6z M74.1,260.8h0.6c0.3,0,0.5,0.2,0.5,0.5c-0.1,0-0.1,0-0.1,0.1c0.1,0.1,0.2,0.3,0.2,0.4
        c-0.1,0.2-0.3,0.3-0.6,0.3h-0.3c-0.1,0-0.1,0-0.1-0.1V260.8z M74.1,262.6h0.2c0.1,0,0.3,0.3,0.5,0.8h0v-0.8h0.3v1.2
        c0,0.1,0,0.1-0.1,0.1H75c0,0-0.2-0.2-0.6-0.7v0.6c0,0.1,0,0.1-0.1,0.1h0c-0.1,0-0.1,0-0.1-0.1V262.6z M74.5,261.1v0.2h0.2
        c0.1,0,0.1,0,0.1-0.1v-0.1H74.5z M74.5,261.6v0.3h0.3c0.1,0,0.1,0,0.1-0.1v0c0-0.1,0-0.1-0.1-0.1H74.5z M74.8,248.3h2.5v0.7h-2.5
        V248.3z"/>
    <path class="st2" d="M79,231h7.2c0.1,0,0.9,1.9,2.3,5.6c0.1,0.1,1.6,3.8,4.5,11.1h1.8V231h6.3v19.8h0.7v7.7h-2.5v1.5h2.5v4.6h-9.4
        v-5.9h-1.7c-2.2-5.5-3.8-9.3-4.5-11.4v-5.9h-0.9v18h-1.4v6.2H78v-13.4H79v0C79,240.8,79,233.7,79,231z M83.9,259.8h0.4
        c0.2,0.5,0.2,0.8,0.2,0.8h0c0.1-0.6,0.2-0.8,0.3-0.8h0.2v0.1c-0.2,0.8-0.4,1.2-0.5,1.2h-0.3C84.3,261.1,84.2,260.6,83.9,259.8z
         M89.5,247.7v1.3h3.9c-0.3-0.9-0.5-1.3-0.6-1.3H89.5z M91.5,261h0.1c0.1,0,0.1,0.1,0.1,0.1v0.8c0,0.2-0.1,0.4-0.3,0.5h-0.2
        c-0.3,0-0.4-0.1-0.4-0.4v-0.1h0.3c0,0.2,0,0.2,0.1,0.2h0.1v-1C91.4,261,91.4,261,91.5,261z M91,259.2h0.9v0.3h-0.6v0.2h0.5
        c0.1,0,0.1,0.1,0.1,0.1v0.1c0,0.1,0,0.1-0.1,0.1h-0.5v0.2h0.6c0.1,0,0.1,0.1,0.1,0.1v0c0,0.1,0,0.1-0.1,0.1H91
        c-0.1,0-0.1,0-0.1-0.1v-1.1C90.9,259.2,91,259.2,91,259.2z M91,262.8h0.1c0.1,0,0.1,0.2,0.1,0.5l0.5-0.5h0.3v0l-0.5,0.5
        c0,0,0.2,0.2,0.5,0.7l-0.1,0.1h-0.2c0,0-0.2-0.2-0.5-0.5c-0.1,0-0.1,0.2-0.2,0.5H91c-0.1,0-0.1,0-0.1-0.1v-1.1
        C90.9,262.8,91,262.8,91,262.8z M92.3,265.3h11.4v0.7H92.3V265.3z M94.8,247.7v1.3h-1.4c0.8,2.1,1.3,3.4,1.5,4.1h0v-0.2
        c-0.1-2.1-0.2-3.4-0.2-3.9h2.8v-1.3H94.8z M101.3,243.7h1v0.3H102v1h-0.4v-1h-0.3c-0.1,0-0.1,0-0.1-0.1v0
        C101.2,243.7,101.2,243.7,101.3,243.7z M101.2,245.4h0.2c0.1,0,0.2,0.3,0.3,0.8h0.1l0.2-0.8h0.4l-0.4,1.3h-0.3
        C101.6,246.7,101.4,246.3,101.2,245.4z M101.3,247.2h0.3c0,0.1,0.1,0.3,0.2,0.4c0.1-0.2,0.2-0.4,0.3-0.4h0.2v0.1
        c-0.2,0.4-0.4,0.6-0.4,0.6c0.1,0,0.2,0.2,0.4,0.6H102c0-0.1-0.1-0.2-0.2-0.3c-0.1,0.2-0.3,0.3-0.3,0.3h-0.3
        c0.3-0.4,0.4-0.6,0.4-0.6C101.4,247.5,101.3,247.3,101.3,247.2z M101.3,241.9h0.7c0.3,0,0.5,0.2,0.5,0.5c0,0.1-0.1,0.2-0.2,0.2
        c0.1,0.1,0.2,0.3,0.2,0.5v0.1h-0.3c0-0.3-0.1-0.5-0.2-0.5h-0.3v0.5h-0.4V241.9z M101.3,249h0.6c0.4,0,0.6,0.2,0.6,0.6v0
        c0,0.4-0.2,0.7-0.5,0.7h-0.7V249z M101.7,242.2v0.3h0.3c0.1,0,0.1,0,0.1-0.1v-0.2H101.7z M101.7,249.3v0.8c0.3,0,0.5-0.1,0.5-0.3
        v-0.1c0-0.2-0.1-0.3-0.2-0.3H101.7z"/>
    <path class="st2" d="M102.7,250.1h4.6v1h-4.6V250.1z M115.4,231h5.9c0.1,0.3,2,6.7,5.7,19.1h1v11.5h-2.4v0.9h2.4v2.5h-6.5v-7.1h-8
        v3h-3.2v5.1h-5.9v-0.3h0.5v-4.7h2.4v-9.8h2L115.4,231z M106.2,259.1h0.2c0.1,0,0.3,0.5,0.6,1.6h-0.3c0,0,0-0.2-0.1-0.4H106
        c0,0.2-0.1,0.4-0.2,0.4h-0.3C105.9,259.6,106.1,259.1,106.2,259.1z M106.3,259.6c-0.1,0.3-0.1,0.4-0.1,0.4h0.3L106.3,259.6
        L106.3,259.6z M107.7,249.4h0.5c0,0.1,0.1,0.3,0.2,0.4c0-0.1,0.1-0.3,0.2-0.4h0.4v0c-0.3,0.4-0.4,0.6-0.4,0.7
        c0.1,0.1,0.2,0.4,0.5,0.7v0.1h-0.2c-0.2,0-0.4-0.2-0.5-0.5c-0.2,0.3-0.4,0.5-0.4,0.5h-0.3c-0.1,0-0.1,0-0.1-0.1
        c0,0,0.2-0.2,0.5-0.7V250C107.8,249.6,107.7,249.4,107.7,249.4z M115.4,258.4v0.3c0,0.1-0.3,0.2-1,0.4v0.1l1,0.3v0.4l-1.5-0.5v-0.4
        L115.4,258.4z M118.1,240.9L118.1,240.9c-0.5,2.8-1.5,7.2-2.9,13.2h5.5v-4h-0.5c-1.3-5.7-2-8.7-2-9.3H118.1z M119.2,252.4h0.3v0.6
        l0.7-0.6h0.3v0.1L120,253c0.4,0.6,0.6,0.9,0.6,0.9h-0.4c0,0-0.2-0.2-0.5-0.6c0,0-0.1,0.1-0.2,0.2v0.5h-0.3V252.4z M121.5,265.4h7.9
        v0.6h-7.9V265.4z M128.2,255h1.1c0.1,0,0.1,0.1,0.1,0.1v0.1c0,0.1,0,0.1-0.1,0.1H129v1.2h-0.4v-1.2h-0.4c-0.1,0-0.1,0-0.1-0.1v-0.1
        C128.1,255,128.1,255,128.2,255z M128.1,257h0.3c0.1,0,0.2,0.3,0.4,1h0c0.2-0.6,0.3-0.9,0.3-1h0.4c-0.3,1.1-0.5,1.6-0.6,1.6h-0.3
        L128.1,257z M128.2,250.8h1.2v0.3l-0.8,1h0.7c0.1,0,0.1,0.1,0.1,0.1v0.1c0,0.1,0,0.1-0.1,0.1h-1.2v-0.3l0.8-1h-0.7V250.8z
         M128.9,259.1h0.2c0.4,0,0.6,0.3,0.7,0.8c-0.1,0.6-0.4,0.8-0.8,0.8c-0.6-0.1-0.8-0.4-0.8-0.8C128.2,259.4,128.5,259.1,128.9,259.1z
         M128.3,252.9h0.7c0.4,0,0.5,0.2,0.5,0.5l-0.2,0.3c0.1,0.1,0.2,0.4,0.2,0.7v0h-0.4c0-0.4-0.1-0.6-0.2-0.6h-0.4v0.6h-0.3
        c-0.1,0-0.1,0-0.1-0.1V253C128.2,253,128.3,252.9,128.3,252.9z M128.6,259.9L128.6,259.9c0,0.3,0.1,0.4,0.3,0.5h0.2
        c0.2-0.1,0.3-0.3,0.3-0.5v0c0-0.3-0.2-0.5-0.4-0.5C128.7,259.5,128.6,259.6,128.6,259.9z M128.6,253.3v0.4h0.4c0.1,0,0.1,0,0.1-0.1
        v-0.2H128.6z"/>
    <path class="st2" d="M130.2,231.1h9c5.3,0,8.6,1.4,10.1,4.1c0.9,1.7,1.3,3.9,1.3,6.6c0,0.5-0.1,1-0.1,1.4h5v1.7h-5.2v0
        c0.1-1,0.1-1.6,0.1-1.6h-2.9v1.7h2.8v5.9h-5.8v2.1h0c-4.4,0-7,0-7.5,0v3.1h-1.2v5.5h0.7v4.6H131v-2.1h-0.8V262c0-2.1,0-5.5,0-10.2
        h3.3v-1.8h-3.3V231.1z M137,237v9.9h2.1v-1.4h4.1c0.6-0.5,0.8-1.9,0.8-4.2c0-2.2-0.5-3.5-1.5-3.8c-0.4-0.3-1.2-0.4-2.6-0.4H137z
         M150.8,245.2h0.2c0.2,0.2,0.3,0.3,0.3,0.5l0.4-0.5h0.2v0.1c-0.3,0.4-0.5,0.8-0.5,1.2h-0.2c-0.1,0-0.1-0.2-0.2-0.7
        c-0.1,0-0.2-0.2-0.4-0.6L150.8,245.2z M150.7,246.9h1v0.3h-0.3v0.9c0,0.1,0,0.1-0.1,0.1h-0.1c-0.1,0-0.1,0-0.1-0.1v-0.9h-0.4V246.9
        z"/>
    <path class="st2" d="M168.6,231c4.9,0,8,1.5,9.2,4.6c0.4,0.7,0.5,1.2,0.5,1.5h-3.1v0.9h3.3v0c0-0.2-0.1-0.5-0.2-0.9h5.6v0.9h-5.3
        v0.1c0.3,1.3,0.5,2.7,0.6,4.2c0,0.1-2.1,0.2-6.4,0.5v0c0-3.9-1.3-5.8-4-5.8h-0.7c-2,0-3.2,0.8-3.7,2.5c-0.4,1.4-0.5,3.3-0.5,5.6
        v4.8l0,0.7h-2.2v1.1h2.2v8.5h9.4v-8.8h5.4v8.8h-3v5.4h-6.3v0.5h-4.9v-0.5h-5v-2.7h3.3v-1.2h-4.9v-4h-2.1v-4.9h1.1
        c0-2.1-0.1-3.7-0.1-4.8c0-5.3,0.3-8.7,0.8-10.1c0.5-1.6,1.3-3,2.3-4.1C161.9,231.9,164.8,231,168.6,231z M164.3,258.4h0.3v1.2h0.7
        v0.4h-1c-0.1,0-0.1,0-0.1-0.1v-1.3C164.2,258.4,164.3,258.4,164.3,258.4z M171.7,258.4h0.4c0.2,0.2,0.3,0.3,0.3,0.5
        c0,0,0.2-0.2,0.4-0.5h0.3v0.1c-0.3,0.4-0.4,0.6-0.4,0.8c0,0,0.2,0.2,0.5,0.6v0.1h-0.3l-0.4-0.5c-0.1,0.3-0.3,0.4-0.3,0.5h-0.4
        c0.1-0.2,0.3-0.4,0.5-0.8L171.7,258.4L171.7,258.4z M176.5,260.5c0.4,0.1,0.6,0.2,0.6,0.3v0.2h-0.2l-0.2-0.2h-0.2
        c-0.1,0-0.1,0.1-0.1,0.1v0.1c0.6,0.1,0.9,0.2,0.9,0.4v0.2c0,0.3-0.2,0.5-0.5,0.5h-0.2c-0.2,0-0.4-0.1-0.5-0.3v-0.2h0.3
        c0,0.2,0.1,0.3,0.3,0.3h0.1c0,0,0.1-0.1,0.2-0.2c0,0-0.3-0.2-0.8-0.4l0-0.1v-0.3C175.9,260.7,176.1,260.6,176.5,260.5z"/>
    <path class="st2" d="M182.1,231h6.9V245h7V231h5.9v19.9h-2.4v0.9h2.4V266h-5.8c-0.1,0-0.1,0-0.1-0.1v-15.1h-7v15.1
        c0,0.1,0,0.1-0.1,0.1h-5.8v-18.2h-1V231z M201.9,250.9h3.1v0.9h-3.1V250.9z"/>
    <path class="st2" d="M203.2,250.1h4.6v1h-4.6V250.1z M215.9,231h5.9c0.1,0.3,2,6.7,5.7,19.1h1v11.5h-2.4v0.9h2.4v2.5H222v-7.1h-8v3
        h-3.2v5.1h-5.9v-0.3h0.5v-4.7h2.4v-9.8h2L215.9,231z M206.7,259.1h0.2c0.1,0,0.3,0.5,0.6,1.6h-0.3c0,0,0-0.2-0.1-0.4h-0.5
        c0,0.2-0.1,0.4-0.2,0.4h-0.3C206.4,259.6,206.6,259.1,206.7,259.1z M206.8,259.6c-0.1,0.3-0.1,0.4-0.1,0.4h0.3L206.8,259.6
        L206.8,259.6z M208.2,249.4h0.5c0,0.1,0.1,0.3,0.2,0.4c0-0.1,0.1-0.3,0.2-0.4h0.4v0c-0.3,0.4-0.4,0.6-0.4,0.7
        c0.1,0.1,0.2,0.4,0.5,0.7v0.1h-0.2c-0.2,0-0.4-0.2-0.5-0.5c-0.2,0.3-0.4,0.5-0.4,0.5h-0.3c-0.1,0-0.1,0-0.1-0.1
        c0,0,0.2-0.2,0.5-0.7V250C208.3,249.6,208.2,249.4,208.2,249.4z M215.9,258.4v0.3c0,0.1-0.3,0.2-1,0.4v0.1l1,0.3v0.4l-1.5-0.5v-0.4
        L215.9,258.4z M218.6,240.9L218.6,240.9c-0.5,2.8-1.5,7.2-2.9,13.2h5.5v-4h-0.5c-1.3-5.7-2-8.7-2-9.3H218.6z M219.7,252.4h0.3v0.6
        l0.7-0.6h0.3v0.1l-0.5,0.6c0.4,0.6,0.6,0.9,0.6,0.9h-0.4c0,0-0.2-0.2-0.5-0.6c0,0-0.1,0.1-0.2,0.2v0.5h-0.3V252.4z M222,265.4h7.9
        v0.6H222V265.4z M228.7,255h1.1c0.1,0,0.1,0.1,0.1,0.1v0.1c0,0.1,0,0.1-0.1,0.1h-0.3v1.2h-0.4v-1.2h-0.4c-0.1,0-0.1,0-0.1-0.1v-0.1
        C228.6,255,228.6,255,228.7,255z M228.6,257h0.3c0.1,0,0.2,0.3,0.4,1h0c0.2-0.6,0.3-0.9,0.3-1h0.4c-0.3,1.1-0.5,1.6-0.6,1.6h-0.3
        L228.6,257z M228.7,250.8h1.2v0.3l-0.8,1h0.7c0.1,0,0.1,0.1,0.1,0.1v0.1c0,0.1,0,0.1-0.1,0.1h-1.2v-0.3l0.8-1h-0.7V250.8z
         M229.4,259.1h0.2c0.4,0,0.6,0.3,0.7,0.8c-0.1,0.6-0.4,0.8-0.8,0.8c-0.6-0.1-0.8-0.4-0.8-0.8C228.7,259.4,229,259.1,229.4,259.1z
         M228.8,252.9h0.7c0.4,0,0.5,0.2,0.5,0.5l-0.2,0.3c0.1,0.1,0.2,0.4,0.2,0.7v0h-0.4c0-0.4-0.1-0.6-0.2-0.6h-0.4v0.6h-0.3
        c-0.1,0-0.1,0-0.1-0.1V253C228.7,253,228.8,252.9,228.8,252.9z M229.1,259.9L229.1,259.9c0,0.3,0.1,0.4,0.3,0.5h0.2
        c0.2-0.1,0.3-0.3,0.3-0.5v0c0-0.3-0.2-0.5-0.4-0.5C229.2,259.5,229.1,259.6,229.1,259.9z M229.1,253.3v0.4h0.4c0.1,0,0.1,0,0.1-0.1
        v-0.2H229.1z"/>
    <path class="st2" d="M229.1,231h20.5v5.8h-6.8V261h3.1v0.7h-3.1v2.7H241v0.9h1.3v0.7h-6.2c-0.1,0-0.1,0-0.1-0.1v-29h-6.8V231z
         M240.4,261v0.7h2.4V261H240.4z"/>
</g>
</svg>
